<svg xmlns="http://www.w3.org/2000/svg" width="200" height="27.43">
    <defs>
        <style>
            .cls-1{fill:#fff}
        </style>
    </defs>
    <g id="Group_366" data-name="Group 366" transform="translate(-2171 -3006)">
        <path id="Path_3264" data-name="Path 3264" class="cls-1" d="M1273.692 495.913h-5.008l-.965 3.368h-4.042l5.457-16.056h4.132l5.457 16.056h-4.042zm-2.515-9.028s-.359 1.752-.651 2.762l-.921 3.121h3.166l-.9-3.121c-.292-1.011-.652-2.762-.652-2.762z" transform="translate(1051.575 2528.217)"/>
        <path id="Path_3265" data-name="Path 3265" class="cls-1" d="M1364.116 483.225h3.93v10.15a2.792 2.792 0 0 0 5.569 0v-10.15h3.93v10.15c0 3.616-2.65 6.175-6.692 6.175-4.087 0-6.737-2.56-6.737-6.175z" transform="translate(965.771 2528.217)"/>
        <path id="Path_3266" data-name="Path 3266" class="cls-1" d="M1469.784 482.08a8.869 8.869 0 0 1 6.176 2.133l-1.887 2.942a6.389 6.389 0 0 0-3.907-1.482c-3.369 0-4.738 2.156-4.738 4.536a4.556 4.556 0 0 0 4.6 4.873 5.5 5.5 0 0 0 3.256-1.168v-1.235l3.481-.074v5.8h-3.279v-.449c0-.337.022-.674.022-.674h-.045a6.654 6.654 0 0 1-4.222 1.392c-4.109 0-7.882-3.076-7.882-8.331a8.128 8.128 0 0 1 8.425-8.263z" transform="translate(882.695 2529.195)"/>
        <path id="Path_3267" data-name="Path 3267" class="cls-1" d="M1575.059 483.929h10.06v3.371h-6.131v9.319h6.445v3.368h-10.375z" transform="translate(785.566 2527.616)"/>
        <path id="Path_3268" data-name="Path 3268" class="cls-1" d="M1544.383 526.847v3.221s-5.624-.586-8.823.648a10.477 10.477 0 0 1-7.952.032v-3.235s1.494.879 5.528.378c2.464-.306 3.661-1.058 6.334-1.211a30.64 30.64 0 0 1 4.913.167z" transform="translate(826.103 2491.127)"/>
        <path id="Rectangle_29" data-name="Rectangle 29" class="cls-1" transform="translate(2191.574 3025.43)" d="M0 0h2.286v3.429H0z"/>
        <path id="Rectangle_30" data-name="Rectangle 30" class="cls-1" transform="translate(2175.86 3009.429)" d="M0 0h2.286v2.285H0z"/>
        <path id="Rectangle_31" data-name="Rectangle 31" class="cls-1" transform="translate(2191.847 3009.429)" d="M0 0h2.286v2.285H0z"/>
        <path id="Rectangle_32" data-name="Rectangle 32" class="cls-1" transform="translate(2175.587 3026.843)" d="M0 0h2.286v2.016H0z"/>
        <path id="Path_3269" data-name="Path 3269" class="cls-1" d="M276.029 448.165v4.571h-2.286v-4.571a2.293 2.293 0 0 1 2.286-2.286h4.571v2.286z" transform="translate(1897.257 2560.121)"/>
        <path id="Path_3270" data-name="Path 3270" class="cls-1" d="M419.5 445.879a2.293 2.293 0 0 1 2.286 2.286v4.571H419.5v-4.571h-4.571v-2.286z" transform="translate(1776.643 2560.121)"/>
        <path id="Path_3271" data-name="Path 3271" class="cls-1" d="M276.029 587.064v4.571h4.571v2.286h-4.571a2.293 2.293 0 0 1-2.286-2.285v-4.571z" transform="translate(1897.257 2439.509)"/>
        <path id="Path_3272" data-name="Path 3272" class="cls-1" d="M419.5 591.635v-4.571h2.286v4.571a2.293 2.293 0 0 1-2.286 2.286h-4.571v-2.285z" transform="translate(1776.643 2439.509)"/>
        <path id="Path_3273" data-name="Path 3273" class="cls-1" d="M325.369 482.316v-9.977h-4.813l.019-2.929h-9v2.929H307.1v9.977h2.711v2.134h-.011v4.39h12.283V482.316zm-4.951 4.857h-8.949v-1.056h8.949zm-1.849-2.723v-3.611h-1.731v3.611h-1.784v-3.611h-1.731v3.611h-1.784v-3.865h-2.711v-6.515h4.48v-2.929h5.526l-.019 2.929h4.824v6.514h-3.284v3.865z" transform="translate(1868.764 2540.019)"/>
        <g id="Group_341" data-name="Group 341" transform="translate(2216.89 3011.514)">
            <path id="Path_3274" data-name="Path 3274" class="cls-1" d="M589.977 483.72h3.111l3.134 7.914c.361.947.812 2.345.812 2.345h.045s.428-1.4.789-2.345L601 483.72h3.111l1.285 16.008h-2.886l-.676-8.951c-.068-1.06-.022-2.48-.022-2.48h-.045s-.474 1.556-.857 2.48l-2.593 6.2h-2.548l-2.57-6.2c-.383-.924-.879-2.5-.879-2.5h-.045s.045 1.443-.023 2.5l-.676 8.951h-2.906z" transform="translate(-588.67 -483.72)"/>
            <path id="Path_3275" data-name="Path 3275" class="cls-1" d="M719.064 512.808c3.314 0 5.1 2.412 5.1 5.456 0 .338-.068 1.1-.068 1.1h-7.936a3.271 3.271 0 0 0 3.45 3.044 5.681 5.681 0 0 0 3.314-1.263l1.1 2.052a7.184 7.184 0 0 1-4.622 1.646 5.892 5.892 0 0 1-6.178-6.02 5.684 5.684 0 0 1 5.84-6.015zm2.21 4.6a2.22 2.22 0 0 0-2.277-2.39 2.678 2.678 0 0 0-2.751 2.39z" transform="translate(-695.075 -508.569)"/>
            <path id="Path_3276" data-name="Path 3276" class="cls-1" d="M798.479 513.079h2.751v1.33a7.145 7.145 0 0 1-.045.789h.045a4.46 4.46 0 0 1 4.081-2.39c2.548 0 3.991 1.33 3.991 4.374v7.4h-2.842v-6.809c0-1.4-.361-2.345-1.826-2.345a3.173 3.173 0 0 0-3.089 2.345 4.853 4.853 0 0 0-.2 1.533v5.276h-2.863z" transform="translate(-767.906 -508.569)"/>
            <path id="Path_3277" data-name="Path 3277" class="cls-1" d="M886.21 488.362h2.863v6.809c0 1.4.361 2.345 1.781 2.345 2.074 0 3.224-1.826 3.224-3.878v-5.276h2.863v11.5h-2.751v-1.308a7.265 7.265 0 0 1 .045-.812h-.045a4.432 4.432 0 0 1-3.99 2.39c-2.458 0-3.99-1.24-3.99-4.374zm5.839-4.487H895l-2.367 3.066h-2.3z" transform="translate(-842.853 -483.852)"/>
            <path id="Path_3278" data-name="Path 3278" class="cls-1" d="M970.142 521.15a4.808 4.808 0 0 0 3.134 1.263c.812 0 1.51-.361 1.51-1.037 0-1.714-5.591-1.488-5.591-5.186 0-2.142 1.917-3.382 4.4-3.382a5.51 5.51 0 0 1 3.855 1.308l-1.06 2.119a4.366 4.366 0 0 0-2.818-.992c-.744 0-1.466.316-1.466 1.037 0 1.623 5.591 1.42 5.591 5.118 0 1.916-1.668 3.45-4.4 3.45a6.432 6.432 0 0 1-4.464-1.691z" transform="translate(-913.437 -508.569)"/>
            <path id="Path_3279" data-name="Path 3279" class="cls-1" d="M1071.224 512.808c3.314 0 5.1 2.412 5.1 5.456 0 .338-.068 1.1-.068 1.1h-7.936a3.271 3.271 0 0 0 3.449 3.044 5.681 5.681 0 0 0 3.314-1.263l1.1 2.052a7.184 7.184 0 0 1-4.622 1.646 5.892 5.892 0 0 1-6.177-6.02 5.684 5.684 0 0 1 5.84-6.015zm2.21 4.6a2.22 2.22 0 0 0-2.277-2.39 2.678 2.678 0 0 0-2.75 2.39z" transform="translate(-995.919 -508.569)"/>
            <path id="Path_3280" data-name="Path 3280" class="cls-1" d="M1150.638 513.079h2.75v1.33a7.135 7.135 0 0 1-.045.789h.045a4.46 4.46 0 0 1 4.081-2.39c2.548 0 3.991 1.33 3.991 4.374v7.4h-2.841v-6.809c0-1.4-.361-2.345-1.826-2.345a3.173 3.173 0 0 0-3.089 2.345 4.846 4.846 0 0 0-.2 1.533v5.276h-2.863z" transform="translate(-1068.749 -508.569)"/>
        </g>
    </g>
</svg>
