<svg xmlns="http://www.w3.org/2000/svg" width="260" height="35.659">
    <defs>
        <style>
            .cls-1{fill:#281a12}.cls-2{fill:#ff5700}
        </style>
    </defs>
    <g id="Group_342" data-name="Group 342" transform="translate(-273.743 -445.879)">
        <path id="Path_3264" data-name="Path 3264" class="cls-1" d="M1276.7 499.719h-6.51l-1.255 4.379h-5.255l7.094-20.873h5.371l7.094 20.873h-5.254zm-3.27-11.736s-.467 2.277-.847 3.591l-1.2 4.058h4.116l-1.167-4.058c-.38-1.314-.847-3.591-.847-3.591z" transform="translate(-802.407 -30.271)"/>
        <path id="Path_3265" data-name="Path 3265" class="cls-1" d="M1364.116 483.225h5.109v13.2c0 2.19 1.43 3.357 3.62 3.357s3.62-1.168 3.62-3.357v-13.2h5.109v13.2c0 4.7-3.445 8.028-8.7 8.028-5.313 0-8.758-3.328-8.758-8.028z" transform="translate(-883.82 -30.271)"/>
        <path id="Path_3266" data-name="Path 3266" class="cls-1" d="M1472.311 482.08c5.342 0 8.028 2.773 8.028 2.773l-2.452 3.824a8.306 8.306 0 0 0-5.079-1.927c-4.379 0-6.16 2.8-6.16 5.9 0 3.97 2.744 6.335 5.985 6.335a7.144 7.144 0 0 0 4.233-1.518v-1.606l4.525-.1v7.54h-4.262v-.584c0-.438.029-.876.029-.876h-.058a8.651 8.651 0 0 1-5.489 1.81c-5.342 0-10.247-4-10.247-10.83a10.567 10.567 0 0 1 10.947-10.741z" transform="translate(-962.645 -29.343)"/>
        <path id="Path_3267" data-name="Path 3267" class="cls-1" d="M1575.059 483.929h13.078v4.379h-7.97v12.115h8.379v4.377h-13.487z" transform="translate(-1054.803 -30.842)"/>
        <path id="Path_3268" data-name="Path 3268" class="cls-1" d="M1549.416 526.909v4.191s-7.311-.762-11.47.843a13.62 13.62 0 0 1-10.337.041v-4.206s1.942 1.143 7.187.491c3.2-.4 4.76-1.375 8.234-1.575a39.821 39.821 0 0 1 6.386.215z" transform="translate(-1016.341 -65.464)"/>
        <path id="Rectangle_29" data-name="Rectangle 29" class="cls-2" transform="translate(300.489 471.138)" d="M0 0h2.972v4.458H0z"/>
        <path id="Rectangle_30" data-name="Rectangle 30" class="cls-2" transform="translate(280.061 450.336)" d="M0 0h2.972v2.971H0z"/>
        <path id="Rectangle_31" data-name="Rectangle 31" class="cls-2" transform="translate(300.844 450.336)" d="M0 0h2.972v2.971H0z"/>
        <path id="Rectangle_32" data-name="Rectangle 32" class="cls-2" transform="translate(279.706 472.975)" d="M0 0h2.972v2.621H0z"/>
        <path id="Path_3269" data-name="Path 3269" class="cls-1" d="M276.714 448.851v5.943h-2.971v-5.943a2.981 2.981 0 0 1 2.972-2.972h5.943v2.972z"/>
        <path id="Path_3270" data-name="Path 3270" class="cls-1" d="M420.874 445.879a2.981 2.981 0 0 1 2.972 2.972v5.942h-2.972v-5.942h-5.943v-2.972z" transform="translate(-114.442)"/>
        <path id="Path_3271" data-name="Path 3271" class="cls-1" d="M276.715 587.064v5.942h5.943v2.972h-5.943a2.981 2.981 0 0 1-2.972-2.971v-5.943z" transform="translate(0 -114.44)"/>
        <path id="Path_3272" data-name="Path 3272" class="cls-1" d="M420.874 593.006v-5.942h2.972v5.942a2.981 2.981 0 0 1-2.972 2.972h-5.943v-2.971z" transform="translate(-114.442 -114.44)"/>
        <path id="Path_3273" data-name="Path 3273" class="cls-2" d="M330.851 486.188v-12.97h-6.256l.024-3.808h-11.7v3.808H307.1v12.97h3.525v2.775h-.007v5.707h15.968v-8.482zm-6.436 6.314h-11.634v-1.373h11.633zm-2.4-3.54v-4.694h-2.25v4.694h-2.32v-4.694h-2.25v4.694h-2.32v-5.025h-3.525v-8.469h5.824v-3.808h7.184l-.024 3.808h6.266v8.469h-4.27v5.025z" transform="translate(-27.035 -19.073)"/>
        <g id="Group_341" data-name="Group 341" transform="translate(333.401 453.047)">
            <path id="Path_3274" data-name="Path 3274" class="cls-1" d="M590.37 483.72h4.045l4.074 10.288a77.502 77.502 0 0 1 1.055 3.048h.059s.557-1.817 1.026-3.048l4.071-10.288h4.045l1.671 20.81h-3.752l-.879-11.636c-.088-1.378-.029-3.224-.029-3.224h-.056s-.615 2.022-1.114 3.224l-3.371 8.06H597.9l-3.341-8.06c-.5-1.2-1.143-3.254-1.143-3.254h-.059s.059 1.876-.03 3.254l-.879 11.636h-3.778z" transform="translate(-588.67 -483.72)"/>
            <path id="Path_3275" data-name="Path 3275" class="cls-1" d="M720.816 512.808c4.309 0 6.624 3.136 6.624 7.093 0 .44-.088 1.436-.088 1.436h-10.317a4.252 4.252 0 0 0 4.484 3.957 7.385 7.385 0 0 0 4.308-1.641l1.436 2.667a9.34 9.34 0 0 1-6.008 2.14 7.66 7.66 0 0 1-8.031-7.826c.001-4.602 3.137-7.826 7.592-7.826zm2.872 5.979a2.886 2.886 0 0 0-2.96-3.107 3.481 3.481 0 0 0-3.576 3.107z" transform="translate(-689.63 -507.298)"/>
            <path id="Path_3276" data-name="Path 3276" class="cls-1" d="M798.479 513.16h3.576v1.729a9.28 9.28 0 0 1-.059 1.026h.059a5.8 5.8 0 0 1 5.305-3.107c3.312 0 5.188 1.729 5.188 5.686v9.614h-3.693v-8.851c0-1.818-.469-3.048-2.374-3.048a4.125 4.125 0 0 0-4.016 3.048 6.305 6.305 0 0 0-.264 1.993v6.858h-3.722z" transform="translate(-758.734 -507.298)"/>
            <path id="Path_3277" data-name="Path 3277" class="cls-1" d="M886.21 489.708h3.722v8.852c0 1.817.469 3.048 2.316 3.048 2.7 0 4.191-2.374 4.191-5.041v-6.859h3.722v14.948h-3.576v-1.7a9.46 9.46 0 0 1 .059-1.055h-.059a5.762 5.762 0 0 1-5.188 3.107c-3.195 0-5.188-1.612-5.188-5.686zm7.591-5.833h3.84l-3.078 3.986h-2.989z" transform="translate(-829.846 -483.846)"/>
            <path id="Path_3278" data-name="Path 3278" class="cls-1" d="M970.534 523.653a6.252 6.252 0 0 0 4.074 1.641c1.055 0 1.964-.469 1.964-1.348 0-2.228-7.269-1.935-7.269-6.741 0-2.784 2.491-4.4 5.715-4.4a7.163 7.163 0 0 1 5.012 1.7l-1.378 2.755a5.677 5.677 0 0 0-3.664-1.29c-.967 0-1.905.41-1.905 1.348 0 2.11 7.269 1.847 7.269 6.654 0 2.491-2.169 4.484-5.715 4.484a8.362 8.362 0 0 1-5.8-2.2z" transform="translate(-896.818 -507.298)"/>
            <path id="Path_3279" data-name="Path 3279" class="cls-1" d="M1072.976 512.808c4.308 0 6.624 3.136 6.624 7.093 0 .44-.088 1.436-.088 1.436H1069.2a4.252 4.252 0 0 0 4.484 3.957 7.385 7.385 0 0 0 4.308-1.641l1.436 2.667a9.339 9.339 0 0 1-6.008 2.14 7.66 7.66 0 0 1-8.031-7.826c-.004-4.602 3.132-7.826 7.587-7.826zm2.872 5.979a2.885 2.885 0 0 0-2.96-3.107 3.481 3.481 0 0 0-3.576 3.107z" transform="translate(-975.079 -507.298)"/>
            <path id="Path_3280" data-name="Path 3280" class="cls-1" d="M1150.638 513.16h3.576v1.729a9.251 9.251 0 0 1-.059 1.026h.059a5.8 5.8 0 0 1 5.3-3.107c3.312 0 5.188 1.729 5.188 5.686v9.614h-3.693v-8.851c0-1.818-.469-3.048-2.374-3.048a4.125 4.125 0 0 0-4.015 3.048 6.3 6.3 0 0 0-.264 1.993v6.858h-3.722z" transform="translate(-1044.182 -507.298)"/>
        </g>
    </g>
</svg>
