<?xml version="1.0" encoding="UTF-8" standalone="no"?>
<svg
   xmlns:dc="http://purl.org/dc/elements/1.1/"
   xmlns:cc="http://creativecommons.org/ns#"
   xmlns:rdf="http://www.w3.org/1999/02/22-rdf-syntax-ns#"
   xmlns:svg="http://www.w3.org/2000/svg"
   xmlns="http://www.w3.org/2000/svg"
   xmlns:sodipodi="http://sodipodi.sourceforge.net/DTD/sodipodi-0.dtd"
   xmlns:inkscape="http://www.inkscape.org/namespaces/inkscape"
   inkscape:version="1.0 (4035a4f, 2020-05-01)"
   sodipodi:docname="facebook.svg"
   version="1.1"
   data-name="Layer 1"
   width="512"
   viewBox="0 0 512 512"
   height="512"
   id="Layer_1">
  <metadata
     id="metadata9">
    <rdf:RDF>
      <cc:Work
         rdf:about="">
        <dc:format>image/svg+xml</dc:format>
        <dc:type
           rdf:resource="http://purl.org/dc/dcmitype/StillImage" />
      </cc:Work>
    </rdf:RDF>
  </metadata>
  <defs
     id="defs7" />
  <sodipodi:namedview
     inkscape:current-layer="Layer_1"
     inkscape:window-maximized="1"
     inkscape:window-y="0"
     inkscape:window-x="0"
     inkscape:cy="256"
     inkscape:cx="256"
     inkscape:zoom="1.2910156"
     showgrid="false"
     id="namedview5"
     inkscape:window-height="825"
     inkscape:window-width="1600"
     inkscape:pageshadow="2"
     inkscape:pageopacity="0"
     guidetolerance="10"
     gridtolerance="10"
     objecttolerance="10"
     borderopacity="1"
     bordercolor="#666666"
     pagecolor="#ffffff" />
  <path
     style="fill:#281a12;fill-opacity:1"
     id="path2"
     fill-rule="evenodd"
     d="m255.1824 7.7579q69.23.79 125.0851 34.0293a249.7343 249.7343 0 0 1 88.8909 89.4346q33.0371 56.1914 33.8244 125.8428-1.962 95.3-60.1167 162.791c-38.77 44.9941-88.425 72.83-139.8274 83.5009v-178.1275h48.5969l10.99-70h-73.5869v-45.8481a39.844 39.844 0 0 1 8.4739-26.3232q8.8275-11.2527 31.0895-11.8287h44.4366v-61.3184q-.9563-.3077-18.15-2.4336a360.7434 360.7434 0 0 0 -39.16-2.4336q-44.4328.205-70.2811 25.0674-25.8488 24.8554-26.4085 71.9209v53.1973h-56v70h56v178.1275c-63.1149-10.6709-112.77-38.5068-151.54-83.5009s-58.808-99.2578-60.1162-162.791q.7851-69.6546 33.8236-125.8428a249.7389 249.7389 0 0 1 88.8917-89.4346q55.8534-33.2329 125.0842-34.0293z" />
</svg>
