<svg xmlns="http://www.w3.org/2000/svg" width="32.797" height="31.85" viewBox="0 0 32.797 31.85">
  <g id="Group_871" data-name="Group 871" transform="translate(-251.817 -326.638)">
    <path id="Path_3287" data-name="Path 3287" d="M278.727,356.9a.852.852,0,0,0-.25.6V360.3a.851.851,0,0,0,.851.851h2.794a.853.853,0,0,0,.6-.25l10.41-10.41-4-4Z" transform="translate(-12.101 -9.012)" fill="#281a12"/>
    <path id="Path_3288" data-name="Path 3288" d="M306.232,343.149l-2.69-2.689a1.065,1.065,0,0,0-1.507,0l-2.086,2.086,4,4,2.286-2.285A.785.785,0,0,0,306.232,343.149Z" transform="translate(-21.847 -6.132)" fill="#281a12"/>
    <rect id="Rectangle_424" data-name="Rectangle 424" width="7.036" height="3.171" rx="0.748" transform="translate(256.007 348.973)" fill="#281a12"/>
    <rect id="Rectangle_425" data-name="Rectangle 425" width="11.196" height="3.171" rx="0.748" transform="translate(256.007 342.63)" fill="#281a12"/>
    <rect id="Rectangle_426" data-name="Rectangle 426" width="15.857" height="3.171" rx="0.748" transform="translate(256.007 336.288)" fill="#281a12"/>
    <path id="Path_3289" data-name="Path 3289" d="M273.749,355.826a.478.478,0,0,1-.477.477h-18.8a.477.477,0,0,1-.476-.477V331.274a.477.477,0,0,1,.476-.477h1.529v1.142a.509.509,0,0,0,.508.508h.982a.509.509,0,0,0,.508-.508V330.8h4.931v1.142a.509.509,0,0,0,.508.508h.982a.509.509,0,0,0,.508-.508V330.8h4.931v1.142a.508.508,0,0,0,.508.508h.982a.509.509,0,0,0,.508-.508V330.8h1.409a.478.478,0,0,1,.477.477v3.8h2.184v-3.8a2.661,2.661,0,0,0-2.661-2.661h-1.409v-1.467a.509.509,0,0,0-.508-.508h-.982a.508.508,0,0,0-.508.508v1.467h-4.931v-1.467a.509.509,0,0,0-.508-.508h-.982a.509.509,0,0,0-.508.508v1.467h-4.931v-1.467a.509.509,0,0,0-.508-.508h-.982a.509.509,0,0,0-.508.508v1.467h-1.529a2.661,2.661,0,0,0-2.661,2.661v24.552a2.661,2.661,0,0,0,2.661,2.661h18.8a2.661,2.661,0,0,0,2.661-2.661v-3.563h-2.184Z" transform="translate(0)" fill="#281a12"/>
  </g>
</svg>
